# xmcd
#
# Track frame offsets:
#	150
#	19135
#	36327
#	51292
#	64067
#	77252
#	103230
#	120862
#	138027
#	153017
#	167962
#	177862
#	193197
#	204995
#
# Disc length: 2966 seconds
#
# Revision: 0
# Processed by: cddbd v1.5.1PL2 Copyright (c) Steve Scherf et al.
# Submitted via: SynApp - FreeCDDB Version: 2.0
#
DISCID=b00b940e
DTITLE=Gall, Günter and Düwelskermes - Tivoli
DYEAR=1990
DGENRE=A capella
TTITLE0=Tivoli
TTITLE1=Angebrochener Abend
TTITLE2=Der Besuch
TTITLE3=Solang der Speicher reicht
TTITLE4=Avalon (instrumental)
TTITLE5=Lied für Hans Calmeyer
TTITLE6=Sozusagen ein Mailied
TTITLE7=Valse Personal (instrumental)
TTITLE8=Lollypope
TTITLE9=Der Rasen
TTITLE10=Edelweiß
TTITLE11=Ajvar Danz (instrumental)
TTITLE12=Vergeßlichkeitslied
TTITLE13=Tohuwarumba (instrumental)
EXTD=
EXTT0=
EXTT1=
EXTT2=
EXTT3=
EXTT4=
EXTT5=
EXTT6=
EXTT7=
EXTT8=
EXTT9=
EXTT10=
EXTT11=
EXTT12=
EXTT13=
PLAYORDER=
